<?xml version="1.0" encoding="UTF-8" standalone="no"?>
<svg viewBox="0 0 387.60001 732.23999" xml:space="preserve" xmlns="http://www.w3.org/2000/svg" xmlns:xlink="http://www.w3.org/1999/xlink"><defs><filter id="filter5644-9-4"><feGaussianBlur stdDeviation="2.68914"></feGaussianBlur></filter><filter height="1.2305" id="filter6058-8-0" width="1.01266" x="-.00633" y="-.11525"><feGaussianBlur stdDeviation=".87938"></feGaussianBlur></filter><filter height="2.1052" id="filter6253-8-2" width="1.03721" x="-.01861" y="-.5526"><feGaussianBlur stdDeviation="2.65814"></feGaussianBlur></filter><linearGradient gradientUnits="userSpaceOnUse" id="linearGradient6171-5-0" x2="0" y1="212.651" y2="259.05171"><stop offset="0" stop-color="#262a2d"></stop><stop offset=".06012" stop-color="#606567"></stop><stop offset=".14895" stop-color="#262a2d"></stop><stop offset="1" stop-color="#262a2d"></stop></linearGradient><linearGradient id="linearGradient5900-2-2-7"><stop offset="0" stop-color="#262a2d"></stop><stop offset=".12389" stop-color="#606567"></stop><stop offset=".2677" stop-color="#262a2d"></stop><stop offset="1" stop-color="#262a2d"></stop></linearGradient><linearGradient gradientUnits="userSpaceOnUse" id="linearGradient6180-3-1" x1="258.97957" x2="322.04081"><stop offset="0" stop-color="#0b1417"></stop><stop offset=".25526" stop-color="#575d60"></stop><stop offset=".69822" stop-color="#575d60"></stop><stop offset="1" stop-color="#0b1417"></stop></linearGradient><linearGradient gradientUnits="userSpaceOnUse" id="linearGradient6184-3-1" x2="0" y1="67.45651" y2="80.08283"><stop offset="0" stop-color="#151515"></stop><stop offset="1" stop-color="#151515" stop-opacity="0"></stop></linearGradient><linearGradient gradientUnits="userSpaceOnUse" id="linearGradient6187-9-3" x2="0" y1="79.44498" y2="67.38666"><stop offset="0" stop-color="#9c9c9c"></stop><stop offset=".20755" stop-color="#242424" stop-opacity=".68908"></stop><stop offset=".61491" stop-color="#242424" stop-opacity=".57983"></stop><stop offset="1" stop-color="#242424"></stop></linearGradient><linearGradient gradientUnits="userSpaceOnUse" id="linearGradient6154-7-3" x2="0" y1="625.30121" y2="695.09711"><stop offset="0" stop-color="#151515"></stop><stop offset=".60526" stop-color="#151515"></stop><stop offset=".81579" stop-color="#525252"></stop><stop offset="1" stop-color="#919192"></stop></linearGradient><linearGradient gradientUnits="userSpaceOnUse" id="linearGradient6206-6-6" x1="306.23245" x2="147.1185" y1="72.23341" y2="547.33545"><stop offset="0" stop-color="#2b2f36"></stop><stop offset="1"></stop></linearGradient><linearGradient gradientUnits="userSpaceOnUse" id="linearGradient16026" x1="245.6257" x2="93.57639" y1="148.94151" y2="587.53851"><stop offset="0" stop-color="#282c32"></stop><stop offset="1"></stop></linearGradient><linearGradient gradientUnits="userSpaceOnUse" id="linearGradient6174-5-6" x2="0" xlink:href="#linearGradient5900-2-2-7" y1="132.65099" y2="164.39864"></linearGradient><linearGradient gradientUnits="userSpaceOnUse" id="linearGradient6177-1-1" x2="0" xlink:href="#linearGradient5900-2-2-7" y1="76.65098" y2="108.39864"></linearGradient></defs>

















































































































































































































































































































































































































































































































































































































































































































































































































































































































































































<path d="m131.58901,720.38641h126.47823a108.1982,5.7723 0 0,1 108.1982,5.7723 108.1982,5.7723 0 0,1 -108.1982,5.7723h-126.47823a108.1982,5.7723 0 0,1 -108.1982-5.7723 108.1982,5.7723 0 0,1 108.1982-5.7723" fill="#a9a9a9" filter="url(#filter6253-8-2)" transform="matrix(.89937,0,0,.42998,19.60599,414.50014)"></path><path d="m71.43749,4.28125c-37.0676,0-66.9062,29.83865-66.9062,66.90625v589.84376c0,37.0676 29.8386,66.90625 66.9062,66.90625h48.875c1.8161-.87752 4.123-1.40625 6.625-1.40625h133.75c2.5021,0 4.7777.52873 6.5938,1.40625h50.9687c37.0676,0 66.9063-29.83865 66.9063-66.90625v-589.84376c0-37.0676-29.8387-66.90625-66.9063-66.90625h-214.9687c-4.5648,1.22798-9.8398,1.9375-15.4688,1.9375s-10.9039-.70952-15.4687-1.9375h-.9063z" fill="#e6e6e6"></path><path d="m71.07868,22.62476h247.52002a45.66264,45.66264 0 0,1 45.66264,45.66264v595.64712a45.66264,45.66264 0 0,1 -45.66264,45.66264h-247.52002a45.66264,45.66264 0 0,1 -45.66264-45.66264v-595.64712a45.66264,45.66264 0 0,1 45.66264-45.66264" fill="url(#linearGradient6206-6-6)"></path><path d="m70.68749,7.1875c-34.7343,0-62.7187,27.98446-62.7187,62.71875v592.43751c0,34.73429 27.9844,62.6875 62.7187,62.6875h248.3125c34.7343,0 62.6875-27.95321 62.6875-62.6875v-592.43751c0-34.73429-27.9532-62.71875-62.6875-62.71875h-248.3125zm3.25,9.40625h241.8125c33.8239,0 61.0625,27.23867 61.0625,61.0625v576.90626c0,33.82383-27.2386,61.0625-61.0625,61.0625h-241.8125c-33.8238,0-61.0625-27.23867-61.0625-61.0625v-576.90626c0-33.82383 27.2387-61.0625 61.0625-61.0625z"></path><path d="m73.40629,6.65625c-36.4753,0-65.8438,29.83865-65.8438,66.90625v2c0-37.0676 29.3685-66.90625 65.8438-66.90625h242.875c36.4753,0 65.8437,29.83865 65.8437,66.90625v-2c0-37.0676-29.3684-66.90625-65.8437-66.90625h-242.875z"></path><path d="m70.62499,18.03125c-28.2379,0-50.9687,22.7623-50.9687,51v594.18751c0,28.2377 22.7308,50.96875 50.9687,50.96875h248.4375c28.238,0 50.9688-22.73105 50.9688-50.96875v-594.18751c0-28.2377-22.7308-51-50.9688-51h-248.4375zm.4688,4.59375h247.5c25.2971,0 45.6562,20.35915 45.6562,45.65625v595.65626c0,25.2971-20.3591,45.65625-45.6562,45.65625h-247.5c-25.2971,0-45.6875-20.35915-45.6875-45.65625v-595.65626c0-25.2971 20.3904-45.65625 45.6875-45.65625z" fill="#e7ebee"></path><path d="m73.40629,8.65625c-17.5649,0-33.4681,6.93531-45.25,18.25 11.1451-7.19199 24.677-11.40625 39.3125-11.40625h254.7187c14.6744,0 28.2443,4.24172 39.4063,11.46875-11.7882-11.35094-27.716-18.3125-45.3125-18.3125h-242.875z" fill="#f5f8fb"></path><path d="m67.46879,15.5c-18.6064,0-35.4248,6.80934-47.8125,17.90625-7.3414,10.26843-11.6875,22.85963-11.6875,36.5v68.15626l1.875-9.03125v-47.40626c0-35.14545 29.0002-63.4375 65.0312-63.4375h239.9375c36.031,0 65.0313,28.29205 65.0313,63.4375v47.40626l1.8437,8.875v-68.00001c0-13.55231-4.2449-26.08055-11.5-36.3125-12.405-11.19886-29.2997-18.09375-48-18.09375h-254.7187z" fill="#2a2e34"></path><path d="m34.32107,122.93516h321.35777a3.67347,3.67347 0 0,1 3.67347,3.67347v481.32393a3.67347,3.67347 0 0,1 -3.67347,3.67347h-321.35777a3.67347,3.67347 0 0,1 -3.67347-3.67347v-481.32393a3.67347,3.67347 0 0,1 3.67347-3.67347" fill="#505157"></path><path d="m35.00002,128.24001h320v480h-320z" fill="url(#linearGradient16026)"></path><path d="m7.5625,659.15626v2c0,37.0676 29.3685,66.90625 65.8438,66.90625h46.6562c1.853-.95198 4.2575-1.53125 6.875-1.53125h133.75c2.6176,0 4.9908.57927 6.8438,1.53125h48.75c36.4753,0 65.8437-29.83865 65.8437-66.90625v-2c0,37.0676-29.3684,66.90625-65.8437,66.90625h-242.875c-36.4753,0-65.8438-29.83865-65.8438-66.90625z" fill="#2e3336"></path><path d="m73.4063,726.06251c-17.5649,0-33.4681-6.93531-45.25-18.25 11.1451,7.19199 24.677,11.40625 39.3125,11.40625h254.7187c14.6744,0 28.2443-4.24172 39.4063-11.46875-11.7882,11.35095-27.716,18.3125-45.3125,18.3125h-242.875z" fill="#dee1e4"></path><path d="m67.4688,719.21876c-18.6064,0-35.4248-6.80934-47.8125-17.90625-7.3414-10.26843-11.6875-22.85963-11.6875-36.5v-68.15625l1.875,9.03125v47.40625c0,35.14545 29.0002,63.4375 65.0312,63.4375h239.9375c36.031,0 65.0313-28.29205 65.0313-63.4375v-47.40625l1.8437-8.875v68c0,13.55231-4.2449,26.08055-11.5,36.3125-12.405,11.19887-29.2997,18.09375-48,18.09375h-254.7187z" fill="#1e2325"></path><path d="m71.18749,13.75c-13.9296.38745-26.6684,5.35967-36.7812,13.46875-4.073,2.54353-7.3129,5.93848-9.875,10-8.2315,10.46615-15.1563,23.65626-15.1563,38.0625v581.68751c0,14.40624 6.9248,27.59635 15.1563,38.0625 2.5621,4.06152 5.802,7.45647 9.875,10 10.1128,8.10908 22.8516,13.0813 36.7812,13.46875-8.0596-.39491-16.6293-3.52246-24.5625-8.90625 2.3143.41876 4.7861.6724 7.4375.75-3.3995-.18151-6.5189-.92384-9.375-2.125-6.1162-4.50469-11.7717-10.37658-16.4062-17.4375-5.4264-11.75023-11.9688-28.24003-11.9688-48v-553.31251c0-19.75997 6.5424-36.24977 11.9688-48 4.6345-7.06092 10.29-12.93281 16.4062-17.4375 2.8561-1.20116 5.9755-1.94349 9.375-2.125-2.6514.07759-5.1232.33124-7.4375.75 7.9332-5.3838 16.5029-8.51134 24.5625-8.90625zm254.0938.59375c8.2118,1.24977 16.7308,4.40369 24.2812,10.0625-3.2815-1.22312-6.992-2.0119-11.1562-2.34375 6.0446.57431 11.1658,2.44717 15.4062,5.90625 1.7508,1.6351 3.4144,3.44093 5,5.40625 7.1012,10.08769 14.5625,27.67468 14.5625,56.09375v553.31251c0,28.41907-7.4613,46.00606-14.5625,56.09375-1.5856,1.96532-3.2492,3.77115-5,5.40625-4.2404,3.45908-9.3616,5.33194-15.4062,5.90625 4.1642-.33186 7.8747-1.12063 11.1562-2.34375-7.5504,5.65881-16.0694,8.81273-24.2812,10.0625 11.2721-1.55155 21.5602-6.1032 30-12.875 4.0236-2.51417 7.2362-5.84466 9.7812-9.84375 8.2894-10.48741 15.2188-23.75035 15.2188-38.21875v-581.68751c0-14.4684-6.9294-27.73135-15.2188-38.21875-2.545-3.99909-5.7576-7.32958-9.7812-9.84375-8.4398-6.7718-18.7279-11.32345-30-12.875z" fill="#2a2e34" filter="url(#filter5644-9-4)"></path><path d="m229.38777,660.19916c0,19.27361-15.62435,34.89796-34.89796,34.89796s-34.89796-15.62435-34.89796-34.89796 15.62435-34.89796 34.89796-34.89796 34.89796,15.62435 34.89796,34.89796z" fill="url(#linearGradient6154-7-3)" transform="translate(-1.3370986e-5,-1.5451583e-6)"></path><path d="m228.1633,660.19918c0-18.59734-15.0761-33.67347-33.6735-33.67347s-33.6734,15.07613-33.6734,33.67347c0,3.21888.4516,6.33227 1.295,9.28026 25.785,9.93322 44.9304,9.73554 64.7718-.0524 .8338-2.93248 1.2801-6.02807 1.2801-9.22789z" fill="#070707"></path><path d="m187.75,647.34376c-2.9396,0-5.3125,2.3729-5.3125,5.3125v13.875c0,2.9396 2.3729,5.3125 5.3125,5.3125h13.875c2.9396,0 5.3125-2.3729 5.3125-5.3125v-13.875c0-2.9396-2.3729-5.3125-5.3125-5.3125h-13.875zm.4688,2.03125h12.9375c2.0728,0 3.75,1.67722 3.75,3.75v12.9375c0,2.07278-1.6772,3.71875-3.75,3.71875h-12.9375c-2.0728,0-3.7188-1.64597-3.7188-3.71875v-12.9375c0-2.07278 1.646-3.75 3.7188-3.75z" fill="#ccced1"></path><path d="m168.06129,67.39156h53.87754a7.55102,6.68518 0 0,1 7.55102,6.68518 7.55102,6.68518 0 0,1 -7.55102,6.68518h-53.87754a7.55102,6.68518 0 0,1 -7.55102-6.68518 7.55102,6.68518 0 0,1 7.55102-6.68518" fill="url(#linearGradient6187-9-3)"></path><path d="m167.65296,70.19919h54.69387a3.87755,3.87755 0 0,1 3.87755,3.87755 3.87755,3.87755 0 0,1 -3.87755,3.87755h-54.69387a3.87755,3.87755 0 0,1 -3.87755-3.87755 3.87755,3.87755 0 0,1 3.87755-3.87755" fill="url(#linearGradient6184-3-1)"></path><path d="m167.04079,71.93388h55.91837a2.5,2.5 0 0,1 2.5,2.5 2.5,2.5 0 0,1 -2.5,2.5h-55.91837a2.5,2.5 0 0,1 -2.5-2.5 2.5,2.5 0 0,1 2.5-2.5" fill="#343434"></path><path d="m260.40819,2.03591h60.2041c.7914,0 1.4285.63714 1.4285,1.42857v1.63265h-63.0612v-1.63265c0-.79143.6372-1.42857 1.4286-1.42857z" fill="url(#linearGradient6180-3-1)"></path><path d="m3.75199,76.65099h1.3191v31.74766h-1.3191c-.4796,0-.8658-.38617-.8658-.86585v-30.01597c0-.47968.3862-.86584.8658-.86584z" fill="url(#linearGradient6177-1-1)"></path><path d="m3.752,132.651h1.3191v46.40071h-1.3191c-.4796,0-.8658-8.38617-.8658-8.86585v-36.66902c0-.47968.3862-.86584.8658-.86584z" fill="url(#linearGradient6174-5-6)"></path><path d="m3.752,259.05171h1.3191v-46.40071h-1.3191c-.4796,0-.8658,8.38617-.8658,8.86585v36.66902c0,.47968.3862.86584.8658.86584z" fill="url(#linearGradient6171-5-0)"></path><path d="m73.40629,726.06251c-17.5649,0-33.4681-6.93531-45.25-18.25 11.1451,7.19199 24.677,14.58992 39.3125,14.58992h254.7187c14.6744,0 28.2443-7.42539 39.4063-14.65242-11.7882,11.35095-27.716,18.3125-45.3125,18.3125h-242.875z" fill="#3e4246" filter="url(#filter6058-8-0)"></path><path d="m73.4063,726.06251c-17.5649,0-33.4681-6.93531-45.25-18.25 11.1451,7.19199 24.677,16.58992 39.3125,16.58992h254.7187c14.6744,0 28.2443-9.42539 39.4063-16.65242-11.7882,11.35095-27.716,18.3125-45.3125,18.3125h-242.875z" fill="#3e4246"></path><path d="m164.69384,71.83185a.20408,.20408 0 0,1 .20408.20408v4.4898a.20408,.20408 0 0,1 -.20408.20408 .20408,.20408 0 0,1 -.20408-.20408v-4.4898a.20408,.20408 0 0,1 .20408-.20408" fill="#2d2d2d"></path></svg>
