<?xml version="1.0" standalone="yes"?>

<svg version="1.1" viewBox="0.0 0.0 960.0 720.0" fill="none" stroke="none" stroke-linecap="square" stroke-miterlimit="10" xmlns="http://www.w3.org/2000/svg" xmlns:xlink="http://www.w3.org/1999/xlink"><clipPath id="p.0"><path d="m0 0l960.0 0l0 720.0l-960.0 0l0 -720.0z" clip-rule="nonzero"></path></clipPath><g clip-path="url(#p.0)"><path fill="#000000" fill-opacity="0.0" d="m0 0l960.0 0l0 720.0l-960.0 0z" fill-rule="nonzero"></path><path stroke="#9e9e9e" stroke-width="1.0" stroke-linecap="butt" d="m99.997375 339.5013l0 79.194214" fill-rule="nonzero"></path><path stroke="#9e9e9e" stroke-width="1.0" stroke-linecap="butt" d="m173.4252 339.5013l0 79.194214" fill-rule="nonzero"></path><path stroke="#9e9e9e" stroke-width="1.0" stroke-linecap="butt" d="m246.85301 339.5013l0 79.194214" fill-rule="nonzero"></path><path stroke="#9e9e9e" stroke-width="1.0" stroke-linecap="butt" d="m320.28085 339.5013l0 79.194214" fill-rule="nonzero"></path><path stroke="#9e9e9e" stroke-width="1.0" stroke-linecap="butt" d="m393.70865 339.5013l0 79.194214" fill-rule="nonzero"></path><path stroke="#9e9e9e" stroke-width="1.0" stroke-linecap="butt" d="m467.13647 339.5013l0 79.194214" fill-rule="nonzero"></path><path stroke="#9e9e9e" stroke-width="1.0" stroke-linecap="butt" d="m540.56433 339.5013l0 79.194214" fill-rule="nonzero"></path><path stroke="#9e9e9e" stroke-width="1.0" stroke-linecap="butt" d="m613.9921 339.5013l0 79.194214" fill-rule="nonzero"></path><path stroke="#9e9e9e" stroke-width="1.0" stroke-linecap="butt" d="m99.49869 340.0l514.99207 0" fill-rule="nonzero"></path><path stroke="#9e9e9e" stroke-width="1.0" stroke-linecap="butt" d="m99.49869 418.19684l514.99207 0" fill-rule="nonzero"></path><path fill="#000000" d="m120.29425 387.71936q-0.03125 -0.859375 -0.03125 -1.28125q0 -2.546875 0.71875 -4.390625q0.53125 -1.390625 1.703125 -2.796875q0.859375 -1.03125 3.09375 -3.0q2.234375 -1.96875 2.90625 -3.140625q0.671875 -1.171875 0.671875 -2.5625q0 -2.515625 -1.96875 -4.40625q-1.953125 -1.90625 -4.796875 -1.90625q-2.75 0 -4.59375 1.71875q-1.84375 1.71875 -2.421875 5.375l-4.421875 -0.515625q0.59375 -4.90625 3.546875 -7.515625q2.953125 -2.609375 7.8125 -2.609375q5.140625 0 8.203125 2.796875q3.0625 2.796875 3.0625 6.765625q0 2.296875 -1.078125 4.234375q-1.0625 1.9375 -4.203125 4.71875q-2.109375 1.875 -2.75 2.765625q-0.640625 0.875 -0.953125 2.03125q-0.3125 1.140625 -0.359375 3.71875l-4.140625 0zm-0.265625 8.640625l0 -4.90625l4.90625 0l0 4.90625l-4.90625 0z" fill-rule="nonzero"></path><path fill="#000000" d="m193.72208 387.71936q-0.03125 -0.859375 -0.03125 -1.28125q0 -2.546875 0.71875 -4.390625q0.53125 -1.390625 1.703125 -2.796875q0.859375 -1.03125 3.09375 -3.0q2.234375 -1.96875 2.90625 -3.140625q0.671875 -1.171875 0.671875 -2.5625q0 -2.515625 -1.96875 -4.40625q-1.953125 -1.90625 -4.796875 -1.90625q-2.75 0 -4.59375 1.71875q-1.84375 1.71875 -2.421875 5.375l-4.421875 -0.515625q0.59375 -4.90625 3.546875 -7.515625q2.953125 -2.609375 7.8125 -2.609375q5.140625 0 8.203125 2.796875q3.0625 2.796875 3.0625 6.765625q0 2.296875 -1.078125 4.234375q-1.0625 1.9375 -4.203125 4.71875q-2.109375 1.875 -2.75 2.765625q-0.640625 0.875 -0.953125 2.03125q-0.3125 1.140625 -0.359375 3.71875l-4.140625 0zm-0.265625 8.640625l0 -4.90625l4.90625 0l0 4.90625l-4.90625 0z" fill-rule="nonzero"></path><path fill="#000000" d="m274.10303 396.36l-4.296875 0l0 -27.4375q-1.5625 1.484375 -4.09375 2.96875q-2.515625 1.46875 -4.53125 2.21875l0 -4.171875q3.625 -1.6875 6.328125 -4.109375q2.703125 -2.421875 3.828125 -4.6875l2.765625 0l0 35.21875z" fill-rule="nonzero"></path><path fill="#000000" d="m340.57773 387.71936q-0.03125 -0.859375 -0.03125 -1.28125q0 -2.546875 0.71875 -4.390625q0.53125 -1.390625 1.703125 -2.796875q0.859375 -1.03125 3.09375 -3.0q2.234375 -1.96875 2.90625 -3.140625q0.671875 -1.171875 0.671875 -2.5625q0 -2.515625 -1.96875 -4.40625q-1.953125 -1.90625 -4.796875 -1.90625q-2.75 0 -4.59375 1.71875q-1.84375 1.71875 -2.421875 5.375l-4.421875 -0.515625q0.59375 -4.90625 3.546875 -7.515625q2.953125 -2.609375 7.8125 -2.609375q5.140625 0 8.203125 2.796875q3.0625 2.796875 3.0625 6.765625q0 2.296875 -1.078125 4.234375q-1.0625 1.9375 -4.203125 4.71875q-2.109375 1.875 -2.75 2.765625q-0.640625 0.875 -0.953125 2.03125q-0.3125 1.140625 -0.359375 3.71875l-4.140625 0zm-0.265625 8.640625l0 -4.90625l4.90625 0l0 4.90625l-4.90625 0z" fill-rule="nonzero"></path><path fill="#000000" d="m420.95865 396.36l-4.296875 0l0 -27.4375q-1.5625 1.484375 -4.09375 2.96875q-2.515625 1.46875 -4.53125 2.21875l0 -4.171875q3.625 -1.6875 6.328125 -4.109375q2.703125 -2.421875 3.828125 -4.6875l2.765625 0l0 35.21875z" fill-rule="nonzero"></path><path fill="#000000" d="m487.43335 387.71936q-0.03125 -0.859375 -0.03125 -1.28125q0 -2.546875 0.71875 -4.390625q0.53125 -1.390625 1.703125 -2.796875q0.859375 -1.03125 3.09375 -3.0q2.234375 -1.96875 2.90625 -3.140625q0.671875 -1.171875 0.671875 -2.5625q0 -2.515625 -1.96875 -4.40625q-1.953125 -1.90625 -4.796875 -1.90625q-2.75 0 -4.59375 1.71875q-1.84375 1.71875 -2.421875 5.375l-4.421875 -0.515625q0.59375 -4.90625 3.546875 -7.515625q2.953125 -2.609375 7.8125 -2.609375q5.140625 0 8.203125 2.796875q3.0625 2.796875 3.0625 6.765625q0 2.296875 -1.078125 4.234375q-1.0625 1.9375 -4.203125 4.71875q-2.109375 1.875 -2.75 2.765625q-0.640625 0.875 -0.953125 2.03125q-0.3125 1.140625 -0.359375 3.71875l-4.140625 0zm-0.265625 8.640625l0 -4.90625l4.90625 0l0 4.90625l-4.90625 0z" fill-rule="nonzero"></path><path fill="#000000" d="m560.8612 387.71936q-0.03125 -0.859375 -0.03125 -1.28125q0 -2.546875 0.71875 -4.390625q0.53125 -1.390625 1.703125 -2.796875q0.859375 -1.03125 3.09375 -3.0q2.234375 -1.96875 2.90625 -3.140625q0.671875 -1.171875 0.671875 -2.5625q0 -2.515625 -1.96875 -4.40625q-1.953125 -1.90625 -4.796875 -1.90625q-2.75 0 -4.59375 1.71875q-1.84375 1.71875 -2.421875 5.375l-4.421875 -0.515625q0.59375 -4.90625 3.546875 -7.515625q2.953125 -2.609375 7.8125 -2.609375q5.140625 0 8.203125 2.796875q3.0625 2.796875 3.0625 6.765625q0 2.296875 -1.078125 4.234375q-1.0625 1.9375 -4.203125 4.71875q-2.109375 1.875 -2.75 2.765625q-0.640625 0.875 -0.953125 2.03125q-0.3125 1.140625 -0.359375 3.71875l-4.140625 0zm-0.265625 8.640625l0 -4.90625l4.90625 0l0 4.90625l-4.90625 0z" fill-rule="nonzero"></path><path fill="#000000" fill-opacity="0.0" d="m224.5643 293.59317l1.7322845 0l0 2.6141663l-1.7322845 0z" fill-rule="nonzero"></path><path fill="#000000" fill-opacity="0.0" d="m42.816273 328.60104l41.070866 0l0 45.322845l-41.070866 0z" fill-rule="nonzero"></path><path fill="#000000" d="m74.12878 390.08105l0 -4.1875q-3.328125 4.828125 -9.046875 4.828125q-2.5156288 0 -4.718754 -0.96875q-2.1875 -0.96875 -3.25 -2.421875q-1.046875 -1.46875 -1.484375 -3.59375q-0.296875 -1.421875 -0.296875 -4.5l0 -17.671875l4.84375 0l0 15.8125q0 3.78125 0.28125 5.109375q0.46875 1.90625 1.9375 3.0q1.484375 1.078125 3.6562538 1.078125q2.171875 0 4.078125 -1.109375q1.90625 -1.125 2.703125 -3.046875q0.796875 -1.921875 0.796875 -5.5625l0 -15.28125l4.828125 0l0 28.515625l-4.328125 0z" fill-rule="nonzero"></path><path fill="#000000" fill-opacity="0.0" d="m248.72441 283.27823l52.440933 0l0 45.322815l-52.440933 0z" fill-rule="nonzero"></path><path fill="#000000" d="m268.70877 329.39822l-10.8125 -27.921875l4.0 0l7.25 20.28125q0.875 2.4375 1.46875 4.578125q0.65625 -2.28125 1.5 -4.578125l7.546875 -20.28125l3.765625 0l-10.921875 27.921875l-3.796875 0z" fill-rule="nonzero"></path><path fill="#000000" d="m285.4297 311.5701l0 -2.9375l2.546875 0l0 2.9375l-2.546875 0zm0 17.828125l0 -15.03125l2.546875 0l0 15.03125l-2.546875 0z" fill-rule="nonzero"></path><path fill="#000000" fill-opacity="0.0" d="m329.1344 283.27823l66.80316 0l0 31.527557l-66.80316 0z" fill-rule="nonzero"></path><path fill="#000000" d="m348.27502 326.83823l-9.984375 -25.765625l3.6875 0l6.703125 18.71875q0.8125 2.25 1.359375 4.21875q0.59375 -2.109375 1.390625 -4.21875l6.953125 -18.71875l3.484375 0l-10.09375 25.765625l-3.5 0z" fill-rule="nonzero"></path><path fill="#000000" d="m363.91174 310.2601l0 -2.75l2.375 0l0 2.75l-2.375 0zm-3.0 22.015625l0.4375 -2.015625q0.71875 0.171875 1.125 0.171875q0.734375 0 1.078125 -0.484375q0.359375 -0.46875 0.359375 -2.390625l0 -14.71875l2.375 0l0 14.765625q0 2.578125 -0.671875 3.59375q-0.859375 1.328125 -2.84375 1.328125q-0.96875 0 -1.859375 -0.25z" fill-rule="nonzero"></path></g></svg>

